<svg width="23" height="38" viewBox="0 0 23 38" fill="none" xmlns="http://www.w3.org/2000/svg">
<path fill-rule="evenodd" clip-rule="evenodd" d="M10.6356 0.893693C11.1584 0.520787 11.8608 0.520787 12.3837 0.893693C18.8966 5.53895 21.8493 11.1078 22.0353 19.0976C22.1212 22.9128 21.7534 26.4061 20.634 29.4238C19.486 32.4433 17.4443 35.2331 14.4386 37.589C14.0593 37.8838 13.5617 37.9799 13.0996 37.8475C12.1791 37.5836 12.0224 36.4941 11.5096 35.8149C10.9966 36.4945 10.8408 37.5834 9.91954 37.8475C9.45751 37.9799 8.95993 37.8838 8.58069 37.589C5.57485 35.2331 3.53327 32.4433 2.38514 29.4238C1.26576 26.4061 0.897977 22.9128 0.983882 19.0976C1.16997 11.1078 4.12255 5.53895 10.6356 0.893693ZM14.0027 34.1475C15.8835 32.4208 17.017 30.5365 17.8179 28.37C18.8255 25.7206 19.1161 22.7945 19.0287 19.1674C18.8836 12.9373 17.4236 8.88291 13.0002 5.11851V16.1295C14.7297 16.574 15.5064 18.2679 15.5064 20.1335C15.5064 21.9992 14.7297 23.6931 13.0002 24.1375V33.1465C13.0002 33.1465 13.8039 33.8864 14.0027 34.1475ZM8.99018 34.1475C7.10922 32.4208 6.00228 30.5365 5.20135 28.37C4.19381 25.7206 3.90311 22.7945 3.99054 19.1674C4.13535 12.9497 5.5878 8.8779 9.99267 5.11851V16.1295C8.26315 16.574 7.48645 18.2679 7.48645 20.1335C7.48645 21.9992 8.26315 23.6931 9.99267 24.1375V33.1465C9.99267 33.1465 9.18154 33.896 8.99018 34.1475ZM11.4965 18.1315C10.3891 18.1315 9.49143 19.0278 9.49143 20.1335C9.49143 21.2392 10.3891 22.1355 11.4965 22.1355C12.6037 22.1355 13.5014 21.2392 13.5014 20.1335C13.5014 19.0278 12.6037 18.1315 11.4965 18.1315Z" fill="white"/>
</svg>
